<?xml version="1.0" encoding="UTF-8"?>
<svg xmlns="http://www.w3.org/2000/svg" xmlns:xlink="http://www.w3.org/1999/xlink" width="59px" height="65px" viewBox="0 0 59 65" version="1.1">
<g id="surface1">
<path style=" stroke:none;fill-rule:nonzero;fill:rgb(18.039216%,18.039216%,18.039216%);fill-opacity:1;" d="M 21.683594 5.9375 C 21.957031 5.859375 22.242188 5.816406 22.539062 5.816406 C 22.949219 5.816406 23.335938 5.894531 23.695312 6.039062 C 24.066406 6.1875 24.398438 6.402344 24.679688 6.664062 C 24.960938 6.933594 25.1875 7.25 25.339844 7.605469 C 25.488281 7.949219 25.574219 8.328125 25.574219 8.714844 L 25.574219 10.070312 L 31.125 10.070312 C 32.46875 8.136719 34.613281 5.917969 36.082031 4.398438 C 36.554688 3.90625 36.960938 3.488281 37.238281 3.1875 L 37.238281 3.179688 C 37.242188 3.171875 37.253906 3.160156 37.265625 3.15625 C 37.8125 2.472656 38.40625 2.023438 38.988281 1.769531 C 39.660156 1.476562 40.328125 1.441406 40.910156 1.59375 C 41.144531 1.65625 41.367188 1.746094 41.566406 1.867188 C 41.773438 1.988281 41.964844 2.132812 42.132812 2.308594 C 42.300781 2.476562 42.449219 2.671875 42.578125 2.886719 C 42.699219 3.097656 42.800781 3.328125 42.867188 3.570312 C 43.03125 4.144531 43.042969 4.792969 42.847656 5.464844 C 42.679688 6.054688 42.351562 6.660156 41.824219 7.238281 L 41.808594 7.253906 C 41.734375 7.339844 41.597656 7.484375 41.417969 7.695312 L 41.164062 7.984375 L 41.28125 7.984375 C 41.390625 7.984375 41.503906 7.992188 41.613281 8 C 41.714844 8.011719 41.820312 8.023438 41.921875 8.039062 L 53.539062 8.039062 C 53.910156 8.039062 54.269531 8.121094 54.597656 8.269531 C 54.929688 8.421875 55.238281 8.648438 55.484375 8.933594 C 55.734375 9.210938 55.941406 9.542969 56.078125 9.910156 C 56.210938 10.261719 56.285156 10.652344 56.285156 11.054688 C 56.285156 11.351562 56.242188 11.648438 56.164062 11.929688 C 56.125 12.070312 56.078125 12.199219 56.027344 12.328125 L 56.132812 12.328125 C 56.507812 12.328125 56.863281 12.410156 57.191406 12.558594 C 57.523438 12.710938 57.832031 12.941406 58.078125 13.222656 C 58.328125 13.5 58.527344 13.832031 58.667969 14.199219 C 58.800781 14.550781 58.871094 14.941406 58.871094 15.339844 C 58.871094 15.742188 58.800781 16.128906 58.667969 16.484375 C 58.527344 16.851562 58.328125 17.183594 58.078125 17.460938 C 57.824219 17.742188 57.523438 17.96875 57.191406 18.125 C 56.863281 18.277344 56.507812 18.355469 56.132812 18.355469 L 56.035156 18.355469 C 56.09375 18.488281 56.140625 18.625 56.183594 18.761719 C 56.269531 19.050781 56.3125 19.351562 56.3125 19.65625 L 56.3125 19.660156 C 56.3125 20.0625 56.238281 20.449219 56.105469 20.804688 C 55.96875 21.171875 55.765625 21.503906 55.519531 21.78125 C 55.261719 22.0625 54.960938 22.292969 54.628906 22.445312 C 54.300781 22.597656 53.945312 22.675781 53.570312 22.675781 L 53.332031 22.675781 C 53.382812 22.796875 53.425781 22.929688 53.457031 23.054688 C 53.53125 23.324219 53.570312 23.613281 53.570312 23.902344 L 53.570312 23.914062 C 53.570312 24.3125 53.496094 24.691406 53.363281 25.042969 C 53.226562 25.414062 53.023438 25.742188 52.777344 26.023438 C 52.523438 26.300781 52.21875 26.527344 51.886719 26.6875 C 51.558594 26.839844 51.203125 26.917969 50.828125 26.917969 L 50.394531 26.917969 L 50.394531 35.710938 C 52.335938 37.140625 54.570312 39.425781 56.105469 40.992188 C 56.59375 41.492188 57.011719 41.917969 57.324219 42.21875 L 57.332031 42.222656 C 57.34375 42.234375 57.347656 42.238281 57.359375 42.25 C 58.042969 42.835938 58.488281 43.460938 58.742188 44.074219 C 59.03125 44.785156 59.070312 45.484375 58.914062 46.101562 C 58.851562 46.34375 58.761719 46.582031 58.644531 46.796875 C 58.523438 47.015625 58.375 47.21875 58.207031 47.394531 C 58.03125 47.582031 57.835938 47.738281 57.625 47.863281 C 57.414062 47.992188 57.179688 48.097656 56.929688 48.175781 C 56.355469 48.347656 55.691406 48.359375 55.015625 48.152344 C 54.417969 47.96875 53.804688 47.617188 53.214844 47.054688 C 53.128906 46.976562 52.972656 46.824219 52.769531 46.632812 L 52.484375 46.363281 L 52.484375 46.496094 C 52.484375 46.613281 52.480469 46.726562 52.46875 46.847656 C 52.457031 46.953125 52.449219 47.058594 52.433594 47.175781 L 52.433594 59.160156 C 52.433594 59.550781 52.347656 59.929688 52.199219 60.273438 C 52.046875 60.628906 51.816406 60.945312 51.539062 61.214844 C 51.257812 61.480469 50.921875 61.699219 50.554688 61.839844 C 50.195312 61.980469 49.808594 62.0625 49.398438 62.0625 C 49.09375 62.0625 48.796875 62.011719 48.515625 61.933594 C 48.378906 61.890625 48.246094 61.84375 48.117188 61.789062 L 48.117188 61.917969 C 48.117188 62.308594 48.035156 62.6875 47.886719 63.027344 C 47.730469 63.386719 47.503906 63.703125 47.222656 63.972656 C 46.945312 64.238281 46.609375 64.453125 46.238281 64.597656 C 45.878906 64.738281 45.492188 64.816406 45.085938 64.816406 C 44.679688 64.816406 44.292969 64.738281 43.933594 64.597656 C 43.5625 64.449219 43.230469 64.234375 42.949219 63.972656 C 42.667969 63.703125 42.441406 63.386719 42.285156 63.027344 C 42.136719 62.6875 42.054688 62.308594 42.054688 61.917969 L 42.054688 61.804688 C 41.933594 61.859375 41.800781 61.90625 41.671875 61.949219 L 41.652344 61.960938 C 41.359375 62.050781 41.054688 62.09375 40.746094 62.09375 L 40.742188 62.09375 C 40.332031 62.09375 39.945312 62.011719 39.585938 61.871094 C 39.21875 61.722656 38.882812 61.507812 38.601562 61.246094 C 38.324219 60.976562 38.09375 60.660156 37.941406 60.304688 C 37.792969 59.960938 37.707031 59.582031 37.707031 59.191406 L 37.707031 58.925781 C 37.585938 58.976562 37.460938 59.023438 37.328125 59.0625 C 37.050781 59.140625 36.765625 59.183594 36.46875 59.183594 C 36.0625 59.183594 35.675781 59.105469 35.316406 58.960938 C 34.945312 58.8125 34.613281 58.597656 34.332031 58.335938 C 34.050781 58.066406 33.824219 57.75 33.671875 57.394531 C 33.523438 57.050781 33.4375 56.671875 33.4375 56.285156 L 33.4375 54.929688 L 27.878906 54.929688 C 26.535156 56.863281 24.394531 59.082031 22.921875 60.601562 C 22.445312 61.09375 22.042969 61.511719 21.769531 61.8125 L 21.734375 61.851562 C 21.1875 62.527344 20.597656 62.972656 20.015625 63.230469 C 19.34375 63.523438 18.675781 63.558594 18.09375 63.40625 C 17.863281 63.34375 17.640625 63.253906 17.4375 63.132812 C 17.230469 63.011719 17.042969 62.867188 16.871094 62.691406 C 16.707031 62.527344 16.566406 62.339844 16.445312 62.128906 L 16.433594 62.109375 C 16.3125 61.898438 16.214844 61.667969 16.140625 61.425781 C 15.976562 60.851562 15.96875 60.203125 16.164062 59.53125 C 16.332031 58.941406 16.660156 58.335938 17.183594 57.757812 L 17.199219 57.742188 C 17.273438 57.65625 17.410156 57.507812 17.59375 57.300781 L 17.847656 57.007812 L 17.734375 57.007812 C 17.625 57.007812 17.511719 57.003906 17.402344 56.992188 C 17.300781 56.984375 17.195312 56.972656 17.09375 56.957031 L 5.339844 56.957031 C 4.96875 56.957031 4.609375 56.871094 4.28125 56.726562 C 3.949219 56.574219 3.640625 56.339844 3.390625 56.0625 C 3.144531 55.785156 2.9375 55.453125 2.804688 55.082031 C 2.671875 54.730469 2.597656 54.339844 2.597656 53.941406 C 2.597656 53.640625 2.640625 53.347656 2.71875 53.0625 C 2.757812 52.925781 2.804688 52.792969 2.859375 52.667969 L 2.753906 52.667969 C 2.375 52.667969 2.023438 52.585938 1.695312 52.4375 C 1.359375 52.285156 1.054688 52.054688 0.804688 51.773438 C 0.554688 51.496094 0.355469 51.164062 0.21875 50.796875 C 0.078125 50.449219 0.00390625 50.058594 0.00390625 49.660156 C 0.00390625 49.257812 0.078125 48.871094 0.210938 48.515625 C 0.347656 48.148438 0.550781 47.816406 0.800781 47.539062 C 1.054688 47.257812 1.355469 47.03125 1.6875 46.875 C 2.015625 46.722656 2.371094 46.644531 2.746094 46.644531 L 2.84375 46.644531 C 2.785156 46.511719 2.734375 46.375 2.695312 46.238281 C 2.609375 45.949219 2.566406 45.648438 2.566406 45.34375 L 2.566406 45.339844 C 2.566406 44.9375 2.640625 44.550781 2.773438 44.195312 C 2.910156 43.828125 3.113281 43.496094 3.359375 43.21875 C 3.613281 42.9375 3.917969 42.707031 4.25 42.554688 C 4.578125 42.402344 4.933594 42.324219 5.308594 42.324219 L 5.546875 42.324219 C 5.5 42.203125 5.457031 42.082031 5.417969 41.957031 L 5.414062 41.945312 C 5.339844 41.675781 5.304688 41.386719 5.304688 41.097656 L 5.304688 41.085938 C 5.304688 40.6875 5.378906 40.308594 5.507812 39.957031 C 5.648438 39.585938 5.847656 39.257812 6.097656 38.976562 C 6.351562 38.699219 6.652344 38.46875 6.984375 38.3125 C 7.3125 38.160156 7.667969 38.082031 8.042969 38.082031 L 8.609375 38.082031 L 8.609375 29.289062 C 6.667969 27.859375 4.433594 25.574219 2.898438 24.007812 C 2.40625 23.503906 1.988281 23.074219 1.675781 22.777344 L 1.652344 22.75 C 0.96875 22.164062 0.519531 21.539062 0.265625 20.925781 C -0.0273438 20.214844 -0.0625 19.515625 0.0898438 18.898438 C 0.152344 18.65625 0.242188 18.417969 0.359375 18.203125 C 0.480469 17.984375 0.628906 17.78125 0.800781 17.605469 C 0.972656 17.417969 1.167969 17.261719 1.382812 17.136719 C 1.59375 17.007812 1.824219 16.902344 2.074219 16.824219 C 2.652344 16.652344 3.3125 16.640625 3.992188 16.847656 C 4.589844 17.03125 5.203125 17.382812 5.789062 17.945312 C 5.875 18.023438 6.035156 18.175781 6.234375 18.367188 L 6.519531 18.636719 L 6.519531 18.503906 C 6.519531 18.386719 6.527344 18.273438 6.535156 18.152344 C 6.546875 18.046875 6.558594 17.941406 6.574219 17.824219 L 6.574219 5.832031 C 6.574219 5.445312 6.65625 5.066406 6.804688 4.722656 C 6.960938 4.363281 7.1875 4.050781 7.46875 3.78125 C 7.75 3.511719 8.082031 3.296875 8.453125 3.15625 C 8.8125 3.011719 9.199219 2.933594 9.605469 2.933594 C 9.914062 2.933594 10.210938 2.980469 10.488281 3.058594 C 10.628906 3.101562 10.757812 3.148438 10.886719 3.207031 L 10.886719 3.070312 C 10.886719 2.679688 10.972656 2.300781 11.121094 1.960938 C 11.273438 1.601562 11.5 1.285156 11.78125 1.019531 C 12.0625 0.75 12.394531 0.535156 12.765625 0.390625 C 13.125 0.25 13.515625 0.171875 13.925781 0.171875 C 14.332031 0.171875 14.71875 0.25 15.078125 0.390625 C 15.449219 0.539062 15.78125 0.753906 16.0625 1.019531 C 16.34375 1.285156 16.570312 1.601562 16.722656 1.960938 C 16.871094 2.300781 16.957031 2.679688 16.957031 3.070312 L 16.957031 3.1875 C 17.089844 3.128906 17.222656 3.074219 17.359375 3.035156 C 17.648438 2.945312 17.957031 2.898438 18.265625 2.898438 L 18.269531 2.898438 C 18.675781 2.898438 19.0625 2.976562 19.421875 3.117188 C 19.792969 3.265625 20.128906 3.480469 20.40625 3.746094 C 20.6875 4.011719 20.914062 4.328125 21.070312 4.6875 C 21.21875 5.027344 21.300781 5.40625 21.300781 5.796875 L 21.300781 6.066406 C 21.421875 6.023438 21.550781 5.976562 21.683594 5.9375 Z M 23.324219 28.738281 L 23.324219 38.144531 C 24.066406 38.257812 24.769531 38.488281 25.417969 38.824219 C 26.140625 39.199219 26.796875 39.707031 27.363281 40.3125 L 33.53125 40.3125 C 33.660156 39.597656 33.886719 38.910156 34.210938 38.273438 C 34.585938 37.523438 35.082031 36.851562 35.679688 36.265625 L 35.679688 26.863281 C 34.941406 26.753906 34.238281 26.523438 33.585938 26.1875 C 32.859375 25.8125 32.210938 25.300781 31.644531 24.695312 L 25.46875 24.695312 C 25.339844 25.414062 25.113281 26.101562 24.789062 26.738281 C 24.417969 27.476562 23.917969 28.152344 23.324219 28.738281 Z M 23.324219 28.738281 "/>
<path style=" stroke:none;fill-rule:nonzero;fill:rgb(100%,80.784314%,38.431373%);fill-opacity:1;" d="M 41.277344 26.933594 L 37.722656 26.933594 L 37.722656 35.636719 C 37.722656 36.992188 37.683594 37.019531 37.273438 37.277344 C 37.105469 37.382812 36.839844 37.550781 36.429688 38.089844 C 36.042969 38.582031 35.738281 39.140625 35.527344 39.742188 C 35.328125 40.320312 35.222656 40.941406 35.222656 41.582031 L 35.222656 46.523438 C 35.222656 46.566406 35.222656 46.601562 35.226562 46.644531 L 35.226562 56.292969 C 35.226562 56.445312 35.257812 56.589844 35.3125 56.71875 L 35.316406 56.730469 C 35.378906 56.871094 35.46875 57.003906 35.585938 57.113281 C 35.703125 57.226562 35.839844 57.316406 35.988281 57.371094 C 36.132812 57.429688 36.296875 57.460938 36.464844 57.460938 C 36.632812 57.460938 36.792969 57.429688 36.941406 57.371094 C 37.09375 57.316406 37.230469 57.226562 37.34375 57.113281 C 37.460938 57.003906 37.550781 56.878906 37.613281 56.734375 C 37.671875 56.597656 37.703125 56.453125 37.703125 56.292969 L 37.703125 51.109375 C 37.703125 50.964844 37.824219 50.84375 37.972656 50.84375 L 39.226562 50.84375 C 39.375 50.84375 39.496094 50.964844 39.496094 51.109375 L 39.496094 59.203125 C 39.496094 59.363281 39.527344 59.507812 39.585938 59.644531 C 39.644531 59.78125 39.734375 59.910156 39.839844 60.015625 L 39.855469 60.023438 C 39.96875 60.128906 40.101562 60.21875 40.25 60.277344 L 40.257812 60.28125 C 40.402344 60.339844 40.566406 60.371094 40.734375 60.371094 C 40.90625 60.371094 41.0625 60.339844 41.210938 60.28125 C 41.367188 60.222656 41.496094 60.136719 41.613281 60.023438 C 41.730469 59.914062 41.820312 59.789062 41.882812 59.644531 C 41.941406 59.507812 41.972656 59.363281 41.972656 59.203125 L 41.972656 51.109375 C 41.972656 50.964844 42.097656 50.84375 42.246094 50.84375 L 43.574219 50.84375 C 43.722656 50.84375 43.84375 50.964844 43.84375 51.109375 L 43.84375 61.941406 C 43.84375 62.097656 43.875 62.246094 43.933594 62.382812 C 43.996094 62.523438 44.085938 62.65625 44.203125 62.761719 C 44.320312 62.871094 44.457031 62.960938 44.605469 63.019531 C 44.746094 63.078125 44.910156 63.109375 45.082031 63.109375 C 45.246094 63.109375 45.402344 63.078125 45.542969 63.023438 L 45.550781 63.019531 C 45.707031 62.960938 45.84375 62.871094 45.953125 62.761719 C 46.070312 62.648438 46.160156 62.523438 46.222656 62.382812 C 46.28125 62.246094 46.3125 62.097656 46.3125 61.941406 L 46.3125 51.109375 C 46.3125 50.964844 46.4375 50.84375 46.582031 50.84375 L 47.878906 50.84375 C 48.027344 50.84375 48.152344 50.964844 48.152344 51.109375 L 48.152344 59.175781 C 48.152344 59.335938 48.183594 59.484375 48.242188 59.621094 C 48.304688 59.761719 48.394531 59.894531 48.511719 60.003906 C 48.625 60.113281 48.757812 60.203125 48.914062 60.261719 C 49.054688 60.320312 49.21875 60.351562 49.390625 60.351562 C 49.558594 60.351562 49.71875 60.320312 49.867188 60.261719 C 50.019531 60.203125 50.152344 60.113281 50.265625 60.003906 C 50.382812 59.894531 50.472656 59.765625 50.539062 59.621094 C 50.59375 59.484375 50.628906 59.335938 50.628906 59.175781 C 50.628906 57.21875 50.636719 55.027344 50.644531 52.835938 C 50.652344 50.90625 50.660156 48.980469 50.660156 46.515625 L 50.808594 44.140625 C 50.8125 44.042969 50.871094 43.953125 50.960938 43.914062 L 51.4375 43.691406 C 51.480469 43.671875 51.523438 43.65625 51.574219 43.65625 C 51.660156 43.65625 51.742188 43.664062 51.828125 43.691406 C 51.914062 43.71875 51.992188 43.75 52.0625 43.796875 C 52.21875 43.886719 52.421875 44.027344 52.632812 44.195312 C 52.855469 44.375 53.082031 44.570312 53.304688 44.765625 C 53.777344 45.1875 54.269531 45.65625 54.453125 45.832031 C 54.804688 46.164062 55.148438 46.375 55.464844 46.492188 C 55.804688 46.613281 56.117188 46.617188 56.375 46.539062 C 56.464844 46.511719 56.554688 46.46875 56.640625 46.417969 C 56.722656 46.363281 56.796875 46.300781 56.867188 46.234375 C 56.9375 46.164062 56.996094 46.082031 57.042969 45.996094 C 57.089844 45.90625 57.125 45.8125 57.152344 45.710938 C 57.230469 45.402344 57.199219 45.039062 57.019531 44.648438 C 56.855469 44.292969 56.574219 43.921875 56.148438 43.554688 L 56.125 43.539062 L 56.078125 43.496094 L 56.046875 43.464844 C 55.871094 43.296875 55.628906 43.054688 55.328125 42.753906 C 53.910156 41.34375 51.25 38.707031 49.210938 37.21875 C 49.1875 37.203125 49.167969 37.1875 49.144531 37.167969 C 49.007812 37.003906 48.882812 36.832031 48.769531 36.644531 C 48.660156 36.460938 48.570312 36.265625 48.496094 36.066406 C 48.4375 35.894531 48.390625 35.71875 48.363281 35.535156 C 48.335938 35.363281 48.324219 35.179688 48.332031 34.984375 L 48.332031 26.921875 L 41.917969 26.921875 C 41.875 26.921875 41.832031 26.917969 41.789062 26.910156 C 41.769531 26.90625 41.746094 26.90625 41.730469 26.902344 C 41.667969 26.90625 41.605469 26.910156 41.535156 26.917969 L 41.53125 26.917969 C 41.445312 26.929688 41.359375 26.933594 41.277344 26.933594 Z M 41.277344 26.933594 "/>
<path style=" stroke:none;fill-rule:nonzero;fill:rgb(96.470588%,57.254902%,44.705882%);fill-opacity:1;" d="M 25.578125 18.5 L 25.578125 22.660156 L 31.050781 22.660156 C 32.34375 22.660156 32.363281 22.703125 32.613281 23.113281 C 32.710938 23.28125 32.867188 23.539062 33.367188 23.953125 C 33.835938 24.339844 34.351562 24.640625 34.914062 24.84375 C 35.453125 25.042969 36.035156 25.148438 36.632812 25.148438 L 41.28125 25.148438 C 41.316406 25.148438 41.355469 25.148438 41.398438 25.144531 L 50.816406 25.144531 C 50.960938 25.144531 51.09375 25.113281 51.21875 25.054688 C 51.351562 24.992188 51.46875 24.902344 51.574219 24.792969 C 51.675781 24.675781 51.761719 24.539062 51.816406 24.390625 C 51.871094 24.246094 51.902344 24.085938 51.902344 23.914062 C 51.902344 23.746094 51.871094 23.582031 51.816406 23.433594 C 51.761719 23.28125 51.675781 23.144531 51.574219 23.027344 C 51.472656 22.917969 51.359375 22.828125 51.226562 22.765625 C 51.105469 22.707031 50.964844 22.675781 50.824219 22.675781 L 45.597656 22.675781 C 45.453125 22.675781 45.328125 22.554688 45.328125 22.40625 L 45.328125 21.160156 C 45.328125 21.011719 45.453125 20.890625 45.597656 20.890625 L 53.566406 20.890625 C 53.707031 20.890625 53.839844 20.859375 53.96875 20.804688 C 54.09375 20.746094 54.210938 20.660156 54.304688 20.554688 L 54.316406 20.539062 C 54.417969 20.425781 54.5 20.289062 54.558594 20.140625 C 54.613281 19.992188 54.644531 19.835938 54.644531 19.660156 C 54.644531 19.492188 54.613281 19.328125 54.558594 19.183594 C 54.5 19.03125 54.417969 18.894531 54.316406 18.777344 C 54.214844 18.667969 54.097656 18.578125 53.960938 18.515625 C 53.839844 18.457031 53.703125 18.425781 53.558594 18.425781 L 45.59375 18.425781 C 45.445312 18.425781 45.324219 18.304688 45.324219 18.15625 L 45.324219 16.835938 C 45.324219 16.6875 45.445312 16.566406 45.59375 16.566406 L 56.132812 16.566406 C 56.273438 16.566406 56.40625 16.535156 56.535156 16.476562 C 56.667969 16.414062 56.789062 16.324219 56.886719 16.214844 C 56.988281 16.097656 57.074219 15.960938 57.132812 15.816406 C 57.183594 15.667969 57.214844 15.507812 57.214844 15.335938 C 57.214844 15.167969 57.183594 15.003906 57.132812 14.855469 C 57.078125 14.710938 57 14.578125 56.898438 14.46875 L 56.886719 14.457031 C 56.789062 14.347656 56.667969 14.257812 56.539062 14.195312 C 56.417969 14.136719 56.28125 14.105469 56.136719 14.105469 L 45.605469 14.105469 C 45.457031 14.105469 45.335938 13.984375 45.335938 13.835938 L 45.335938 12.546875 C 45.335938 12.398438 45.457031 12.277344 45.605469 12.277344 L 53.542969 12.277344 C 53.6875 12.277344 53.820312 12.246094 53.945312 12.191406 C 54.078125 12.125 54.199219 12.035156 54.300781 11.925781 C 54.402344 11.8125 54.484375 11.671875 54.542969 11.527344 C 54.597656 11.378906 54.628906 11.222656 54.628906 11.046875 C 54.628906 10.878906 54.597656 10.714844 54.542969 10.570312 C 54.484375 10.417969 54.40625 10.28125 54.300781 10.164062 C 54.199219 10.054688 54.078125 9.964844 53.945312 9.902344 C 53.824219 9.84375 53.6875 9.8125 53.542969 9.8125 C 51.710938 9.8125 49.558594 9.800781 47.410156 9.796875 C 45.515625 9.789062 43.621094 9.78125 41.296875 9.78125 L 39.046875 9.644531 C 38.953125 9.636719 38.863281 9.578125 38.820312 9.484375 L 38.609375 9.011719 C 38.585938 8.972656 38.578125 8.933594 38.578125 8.886719 C 38.578125 8.800781 38.585938 8.714844 38.609375 8.636719 C 38.628906 8.5625 38.660156 8.492188 38.703125 8.417969 C 38.789062 8.253906 38.925781 8.054688 39.085938 7.839844 C 39.238281 7.636719 39.421875 7.40625 39.625 7.167969 C 40.011719 6.710938 40.429688 6.25 40.609375 6.050781 L 40.628906 6.023438 C 40.941406 5.675781 41.144531 5.332031 41.242188 5.019531 C 41.355469 4.675781 41.359375 4.363281 41.285156 4.101562 C 41.261719 4.007812 41.222656 3.917969 41.175781 3.839844 C 41.128906 3.753906 41.070312 3.679688 41 3.613281 C 40.9375 3.542969 40.863281 3.492188 40.777344 3.445312 C 40.699219 3.390625 40.609375 3.355469 40.519531 3.328125 C 40.238281 3.253906 39.898438 3.285156 39.546875 3.453125 C 39.21875 3.613281 38.867188 3.890625 38.527344 4.3125 L 38.511719 4.339844 L 38.46875 4.386719 L 38.417969 4.433594 C 38.238281 4.628906 38.019531 4.859375 37.757812 5.144531 C 36.433594 6.554688 33.957031 9.195312 32.558594 11.226562 C 32.542969 11.246094 32.527344 11.269531 32.507812 11.289062 C 32.351562 11.425781 32.1875 11.554688 32.015625 11.667969 C 31.839844 11.777344 31.660156 11.875 31.464844 11.941406 C 31.300781 12 31.136719 12.046875 30.957031 12.074219 C 30.785156 12.101562 30.613281 12.109375 30.429688 12.105469 L 25.5625 12.105469 L 25.5625 17.804688 C 25.5625 17.847656 25.558594 17.886719 25.550781 17.929688 C 25.546875 17.949219 25.542969 17.976562 25.542969 18 C 25.546875 18.066406 25.558594 18.140625 25.558594 18.21875 C 25.574219 18.324219 25.578125 18.414062 25.578125 18.5 Z M 25.578125 18.5 "/>
<path style=" stroke:none;fill-rule:nonzero;fill:rgb(29.803922%,68.627451%,31.372549%);fill-opacity:1;" d="M 33.425781 46.515625 L 33.425781 42.355469 L 27.953125 42.355469 C 26.664062 42.355469 26.640625 42.3125 26.394531 41.902344 C 26.292969 41.734375 26.140625 41.476562 25.636719 41.0625 C 25.171875 40.675781 24.652344 40.375 24.089844 40.171875 C 23.550781 39.972656 22.96875 39.867188 22.371094 39.867188 L 17.730469 39.867188 C 17.691406 39.867188 17.65625 39.867188 17.613281 39.871094 L 8.054688 39.871094 C 7.914062 39.871094 7.78125 39.902344 7.652344 39.960938 C 7.519531 40.023438 7.402344 40.113281 7.304688 40.222656 C 7.203125 40.339844 7.117188 40.476562 7.058594 40.625 C 7.007812 40.773438 6.976562 40.929688 6.976562 41.101562 C 6.976562 41.269531 7.007812 41.433594 7.058594 41.582031 C 7.117188 41.734375 7.203125 41.871094 7.304688 41.988281 C 7.402344 42.097656 7.519531 42.1875 7.652344 42.25 C 7.773438 42.308594 7.914062 42.339844 8.054688 42.339844 L 13.410156 42.339844 C 13.558594 42.339844 13.679688 42.460938 13.679688 42.609375 L 13.679688 43.855469 C 13.679688 44.003906 13.558594 44.125 13.410156 44.125 L 5.3125 44.125 C 5.171875 44.125 5.039062 44.15625 4.910156 44.210938 C 4.777344 44.277344 4.65625 44.367188 4.558594 44.476562 C 4.457031 44.589844 4.371094 44.726562 4.3125 44.875 C 4.261719 45.023438 4.230469 45.179688 4.230469 45.355469 C 4.230469 45.523438 4.261719 45.6875 4.3125 45.832031 C 4.371094 45.984375 4.457031 46.121094 4.558594 46.238281 C 4.65625 46.347656 4.773438 46.4375 4.910156 46.5 C 5.03125 46.558594 5.171875 46.589844 5.3125 46.589844 L 13.40625 46.589844 C 13.554688 46.589844 13.675781 46.710938 13.675781 46.859375 L 13.675781 48.179688 C 13.675781 48.328125 13.554688 48.449219 13.40625 48.449219 L 2.746094 48.449219 C 2.605469 48.449219 2.472656 48.480469 2.34375 48.539062 C 2.210938 48.601562 2.089844 48.691406 1.996094 48.800781 C 1.894531 48.917969 1.808594 49.054688 1.75 49.207031 C 1.699219 49.355469 1.667969 49.511719 1.667969 49.683594 C 1.667969 49.859375 1.699219 50.015625 1.75 50.164062 C 1.804688 50.3125 1.882812 50.441406 1.984375 50.554688 L 1.996094 50.5625 C 2.097656 50.675781 2.21875 50.765625 2.351562 50.828125 C 2.472656 50.882812 2.609375 50.917969 2.753906 50.917969 L 13.410156 50.917969 C 13.558594 50.917969 13.679688 51.039062 13.679688 51.183594 L 13.679688 52.472656 C 13.679688 52.621094 13.558594 52.742188 13.410156 52.742188 L 5.339844 52.742188 C 5.195312 52.742188 5.066406 52.773438 4.9375 52.832031 C 4.8125 52.890625 4.695312 52.972656 4.597656 53.078125 L 4.589844 53.09375 C 4.488281 53.210938 4.402344 53.347656 4.34375 53.496094 C 4.292969 53.640625 4.261719 53.800781 4.261719 53.972656 C 4.261719 54.140625 4.292969 54.304688 4.34375 54.453125 C 4.402344 54.605469 4.484375 54.742188 4.589844 54.855469 C 4.683594 54.96875 4.800781 55.050781 4.925781 55.113281 L 4.9375 55.121094 C 5.058594 55.179688 5.195312 55.210938 5.339844 55.210938 C 7.171875 55.210938 9.355469 55.21875 11.542969 55.226562 C 13.46875 55.234375 15.394531 55.242188 17.722656 55.242188 L 19.957031 55.390625 C 20.054688 55.394531 20.144531 55.453125 20.183594 55.546875 L 20.398438 56.019531 C 20.417969 56.058594 20.429688 56.097656 20.429688 56.148438 C 20.429688 56.230469 20.417969 56.316406 20.398438 56.394531 C 20.375 56.46875 20.34375 56.542969 20.300781 56.613281 C 20.21875 56.777344 20.078125 56.976562 19.921875 57.195312 C 19.765625 57.394531 19.582031 57.625 19.382812 57.863281 C 18.988281 58.324219 18.570312 58.792969 18.394531 58.988281 L 18.378906 59.007812 C 18.066406 59.355469 17.867188 59.699219 17.765625 60.015625 C 17.65625 60.355469 17.648438 60.667969 17.722656 60.929688 C 17.75 61.023438 17.789062 61.113281 17.835938 61.191406 C 17.882812 61.277344 17.941406 61.351562 18.011719 61.417969 C 18.074219 61.488281 18.148438 61.539062 18.230469 61.585938 C 18.3125 61.632812 18.402344 61.671875 18.492188 61.691406 C 18.773438 61.765625 19.109375 61.734375 19.464844 61.566406 C 19.792969 61.410156 20.144531 61.128906 20.480469 60.707031 L 20.496094 60.683594 L 20.539062 60.636719 L 20.578125 60.59375 C 20.757812 60.398438 20.972656 60.167969 21.238281 59.882812 C 22.5625 58.472656 25.039062 55.832031 26.4375 53.800781 C 26.453125 53.777344 26.46875 53.757812 26.488281 53.738281 C 26.640625 53.601562 26.804688 53.46875 26.980469 53.359375 C 27.15625 53.246094 27.335938 53.152344 27.53125 53.085938 C 27.695312 53.027344 27.859375 52.980469 28.039062 52.953125 C 28.207031 52.925781 28.382812 52.914062 28.5625 52.921875 L 33.433594 52.921875 L 33.433594 47.222656 C 33.433594 47.179688 33.4375 47.136719 33.441406 47.097656 C 33.449219 47.074219 33.453125 47.050781 33.453125 47.027344 C 33.449219 46.960938 33.4375 46.886719 33.4375 46.808594 C 33.425781 46.691406 33.425781 46.601562 33.425781 46.515625 Z M 33.425781 46.515625 "/>
<path style=" stroke:none;fill-rule:nonzero;fill:rgb(0%,80%,100%);fill-opacity:1;" d="M 10.664062 30.042969 L 10.664062 38.082031 L 17.078125 38.082031 C 17.121094 38.082031 17.164062 38.089844 17.207031 38.09375 C 17.226562 38.097656 17.246094 38.097656 17.265625 38.105469 C 17.328125 38.097656 17.394531 38.09375 17.464844 38.089844 C 17.554688 38.082031 17.644531 38.078125 17.722656 38.078125 L 21.277344 38.078125 L 21.277344 29.386719 C 21.277344 28.027344 21.316406 28 21.726562 27.742188 C 21.894531 27.636719 22.160156 27.46875 22.570312 26.933594 C 22.957031 26.4375 23.261719 25.878906 23.472656 25.28125 C 23.671875 24.703125 23.777344 24.082031 23.777344 23.4375 L 23.777344 18.5 C 23.777344 18.457031 23.777344 18.417969 23.773438 18.378906 L 23.773438 8.722656 C 23.773438 8.570312 23.742188 8.421875 23.6875 8.289062 L 23.683594 8.28125 C 23.621094 8.136719 23.53125 8.007812 23.414062 7.894531 C 23.300781 7.789062 23.171875 7.699219 23.023438 7.644531 L 23.011719 7.636719 C 22.867188 7.582031 22.703125 7.546875 22.535156 7.546875 C 22.367188 7.546875 22.207031 7.582031 22.058594 7.636719 C 21.90625 7.695312 21.769531 7.785156 21.65625 7.894531 C 21.539062 8.007812 21.449219 8.132812 21.386719 8.273438 C 21.328125 8.410156 21.296875 8.558594 21.296875 8.714844 L 21.296875 13.898438 C 21.296875 14.046875 21.175781 14.167969 21.027344 14.167969 L 19.773438 14.167969 C 19.625 14.167969 19.503906 14.046875 19.503906 13.898438 L 19.503906 5.808594 C 19.503906 5.648438 19.472656 5.5 19.414062 5.363281 C 19.347656 5.222656 19.257812 5.089844 19.144531 4.984375 C 19.027344 4.875 18.894531 4.785156 18.742188 4.726562 C 18.597656 4.671875 18.433594 4.640625 18.265625 4.640625 C 18.09375 4.640625 17.9375 4.671875 17.789062 4.726562 C 17.632812 4.785156 17.496094 4.875 17.386719 4.984375 C 17.269531 5.097656 17.179688 5.222656 17.117188 5.363281 C 17.058594 5.5 17.027344 5.648438 17.027344 5.808594 L 17.027344 13.90625 C 17.027344 14.050781 16.902344 14.171875 16.753906 14.171875 L 15.425781 14.171875 C 15.277344 14.171875 15.15625 14.050781 15.15625 13.90625 L 15.15625 3.074219 C 15.15625 2.921875 15.125 2.777344 15.074219 2.644531 L 15.066406 2.632812 C 15.003906 2.492188 14.914062 2.359375 14.796875 2.253906 C 14.679688 2.144531 14.542969 2.054688 14.394531 1.996094 C 14.253906 1.941406 14.089844 1.90625 13.917969 1.90625 C 13.753906 1.90625 13.597656 1.941406 13.457031 1.992188 L 13.449219 1.992188 C 13.292969 2.050781 13.15625 2.140625 13.046875 2.25 C 12.929688 2.359375 12.839844 2.488281 12.777344 2.628906 C 12.71875 2.765625 12.6875 2.914062 12.6875 3.070312 L 12.6875 13.90625 C 12.6875 14.050781 12.5625 14.171875 12.417969 14.171875 L 11.121094 14.171875 C 10.972656 14.171875 10.847656 14.050781 10.847656 13.90625 L 10.847656 5.832031 C 10.847656 5.675781 10.816406 5.527344 10.757812 5.390625 C 10.695312 5.25 10.601562 5.117188 10.488281 5.011719 C 10.375 4.902344 10.242188 4.8125 10.085938 4.753906 C 9.945312 4.695312 9.78125 4.664062 9.609375 4.664062 C 9.441406 4.664062 9.28125 4.695312 9.132812 4.753906 C 8.988281 4.8125 8.855469 4.898438 8.742188 5 L 8.734375 5.011719 C 8.617188 5.121094 8.527344 5.25 8.460938 5.394531 C 8.40625 5.535156 8.371094 5.679688 8.371094 5.839844 C 8.371094 7.796875 8.363281 9.988281 8.355469 12.179688 C 8.347656 14.109375 8.339844 16.035156 8.339844 18.5 L 8.191406 20.875 C 8.1875 20.972656 8.128906 21.0625 8.039062 21.101562 L 7.5625 21.324219 C 7.519531 21.34375 7.476562 21.359375 7.425781 21.359375 C 7.339844 21.359375 7.257812 21.351562 7.171875 21.324219 C 7.085938 21.296875 7.007812 21.265625 6.9375 21.21875 C 6.78125 21.128906 6.578125 20.988281 6.367188 20.820312 C 6.144531 20.640625 5.917969 20.445312 5.695312 20.25 C 5.222656 19.828125 4.730469 19.359375 4.546875 19.183594 C 4.195312 18.851562 3.851562 18.640625 3.535156 18.523438 C 3.195312 18.410156 2.882812 18.398438 2.625 18.476562 C 2.535156 18.503906 2.445312 18.546875 2.359375 18.597656 C 2.277344 18.652344 2.203125 18.707031 2.132812 18.78125 C 2.0625 18.851562 2.003906 18.933594 1.957031 19.019531 C 1.910156 19.113281 1.875 19.207031 1.847656 19.308594 C 1.769531 19.617188 1.800781 19.980469 1.980469 20.371094 C 2.144531 20.730469 2.425781 21.097656 2.851562 21.464844 L 2.875 21.480469 L 2.921875 21.523438 L 2.953125 21.554688 C 3.128906 21.722656 3.371094 21.964844 3.679688 22.269531 C 5.097656 23.679688 7.753906 26.316406 9.796875 27.800781 C 9.816406 27.816406 9.839844 27.832031 9.859375 27.855469 C 10.003906 28.015625 10.125 28.191406 10.234375 28.375 C 10.347656 28.558594 10.4375 28.753906 10.511719 28.953125 C 10.570312 29.128906 10.617188 29.300781 10.644531 29.484375 C 10.667969 29.660156 10.679688 29.84375 10.675781 30.039062 Z M 10.664062 30.042969 "/>
</g>
</svg>
