<?xml version="1.0" standalone="no"?>
<!DOCTYPE svg PUBLIC "-//W3C//DTD SVG 20010904//EN"
 "http://www.w3.org/TR/2001/REC-SVG-20010904/DTD/svg10.dtd">
<svg version="1.0" xmlns="http://www.w3.org/2000/svg"
 width="16.000000pt" height="16.000000pt" viewBox="0 0 16.000000 16.000000"
 preserveAspectRatio="xMidYMid meet">

<g transform="translate(0.000000,16.000000) scale(0.100000,-0.100000)"
fill="#000000" stroke="none">
<path d="M75 120 c-4 -6 -10 -8 -15 -5 -4 3 -13 -2 -20 -10 -10 -13 -9 -15 11
-16 22 0 23 -1 4 -9 -19 -8 -19 -9 3 -9 12 -1 22 5 22 13 0 9 8 12 25 8 30 -5
33 13 6 28 -24 13 -28 13 -36 0z"/>
<path d="M65 44 c-21 -21 -19 -24 15 -24 19 0 30 5 30 14 0 21 -27 27 -45 10z"/>
</g>
</svg>
